<mxfile host="app.diagrams.net" modified="2022-01-12T09:53:59.732Z" agent="5.0 (Windows NT 10.0; Win64; x64) AppleWebKit/537.36 (KHTML, like Gecko) Chrome/97.0.4692.71 Safari/537.36" etag="u-yiNFI04esmiICLVcJ8" version="16.2.4" type="github">
  <diagram id="OM3lx3goNTmFPO1qKr1K" name="Page-1">
    <mxGraphModel dx="868" dy="1559" grid="1" gridSize="10" guides="1" tooltips="1" connect="1" arrows="1" fold="1" page="1" pageScale="1" pageWidth="827" pageHeight="1169" math="0" shadow="0">
      <root>
        <mxCell id="0" />
        <mxCell id="1" parent="0" />
        <mxCell id="ES-EeXoTM_ZExigbFJbH-40" style="edgeStyle=orthogonalEdgeStyle;rounded=0;orthogonalLoop=1;jettySize=auto;html=1;exitX=1;exitY=0.5;exitDx=0;exitDy=0;entryX=0;entryY=0.5;entryDx=0;entryDy=0;" parent="1" source="ES-EeXoTM_ZExigbFJbH-43" target="ES-EeXoTM_ZExigbFJbH-61" edge="1">
          <mxGeometry relative="1" as="geometry" />
        </mxCell>
        <mxCell id="ES-EeXoTM_ZExigbFJbH-41" style="edgeStyle=orthogonalEdgeStyle;rounded=0;orthogonalLoop=1;jettySize=auto;html=1;exitX=1;exitY=0.5;exitDx=0;exitDy=0;entryX=0;entryY=0.5;entryDx=0;entryDy=0;" parent="1" source="ES-EeXoTM_ZExigbFJbH-43" target="ES-EeXoTM_ZExigbFJbH-66" edge="1">
          <mxGeometry relative="1" as="geometry" />
        </mxCell>
        <mxCell id="ES-EeXoTM_ZExigbFJbH-42" style="edgeStyle=orthogonalEdgeStyle;rounded=0;orthogonalLoop=1;jettySize=auto;html=1;exitX=1;exitY=0.5;exitDx=0;exitDy=0;entryX=0;entryY=0.5;entryDx=0;entryDy=0;" parent="1" source="ES-EeXoTM_ZExigbFJbH-43" target="ES-EeXoTM_ZExigbFJbH-70" edge="1">
          <mxGeometry relative="1" as="geometry" />
        </mxCell>
        <mxCell id="ES-EeXoTM_ZExigbFJbH-43" value="F102: Détecter les pièges" style="rounded=0;whiteSpace=wrap;html=1;" parent="1" vertex="1">
          <mxGeometry x="90" y="80" width="120" height="60" as="geometry" />
        </mxCell>
        <mxCell id="ES-EeXoTM_ZExigbFJbH-59" style="edgeStyle=orthogonalEdgeStyle;rounded=0;orthogonalLoop=1;jettySize=auto;html=1;exitX=1;exitY=0.5;exitDx=0;exitDy=0;entryX=0;entryY=0.5;entryDx=0;entryDy=0;fontColor=#000000;" parent="1" source="ES-EeXoTM_ZExigbFJbH-61" target="ES-EeXoTM_ZExigbFJbH-77" edge="1">
          <mxGeometry relative="1" as="geometry" />
        </mxCell>
        <mxCell id="ES-EeXoTM_ZExigbFJbH-60" style="edgeStyle=orthogonalEdgeStyle;rounded=0;orthogonalLoop=1;jettySize=auto;html=1;exitX=1;exitY=0.5;exitDx=0;exitDy=0;entryX=0;entryY=0.5;entryDx=0;entryDy=0;fontColor=#000000;" parent="1" source="ES-EeXoTM_ZExigbFJbH-61" target="ES-EeXoTM_ZExigbFJbH-79" edge="1">
          <mxGeometry relative="1" as="geometry" />
        </mxCell>
        <mxCell id="ES-EeXoTM_ZExigbFJbH-61" value="grâce à la couleur" style="rounded=0;whiteSpace=wrap;html=1;" parent="1" vertex="1">
          <mxGeometry x="340" width="120" height="60" as="geometry" />
        </mxCell>
        <mxCell id="ES-EeXoTM_ZExigbFJbH-64" style="edgeStyle=orthogonalEdgeStyle;rounded=0;orthogonalLoop=1;jettySize=auto;html=1;exitX=1;exitY=0.5;exitDx=0;exitDy=0;entryX=0;entryY=0.5;entryDx=0;entryDy=0;fontColor=#000000;" parent="1" source="ES-EeXoTM_ZExigbFJbH-66" target="ES-EeXoTM_ZExigbFJbH-74" edge="1">
          <mxGeometry relative="1" as="geometry" />
        </mxCell>
        <mxCell id="ES-EeXoTM_ZExigbFJbH-65" style="edgeStyle=orthogonalEdgeStyle;rounded=0;orthogonalLoop=1;jettySize=auto;html=1;exitX=1;exitY=0.5;exitDx=0;exitDy=0;entryX=0;entryY=0.5;entryDx=0;entryDy=0;fontColor=#000000;" parent="1" source="ES-EeXoTM_ZExigbFJbH-66" target="ES-EeXoTM_ZExigbFJbH-75" edge="1">
          <mxGeometry relative="1" as="geometry" />
        </mxCell>
        <mxCell id="ES-EeXoTM_ZExigbFJbH-118" style="edgeStyle=orthogonalEdgeStyle;rounded=0;orthogonalLoop=1;jettySize=auto;html=1;entryX=0;entryY=0.5;entryDx=0;entryDy=0;" parent="1" source="ES-EeXoTM_ZExigbFJbH-66" target="ES-EeXoTM_ZExigbFJbH-117" edge="1">
          <mxGeometry relative="1" as="geometry" />
        </mxCell>
        <mxCell id="ES-EeXoTM_ZExigbFJbH-66" value="contrôle de l&#39;utilisateur via la &lt;b&gt;caméra&lt;/b&gt;" style="rounded=0;whiteSpace=wrap;html=1;" parent="1" vertex="1">
          <mxGeometry x="340" y="90" width="120" height="60" as="geometry" />
        </mxCell>
        <mxCell id="ES-EeXoTM_ZExigbFJbH-67" style="edgeStyle=orthogonalEdgeStyle;rounded=0;orthogonalLoop=1;jettySize=auto;html=1;exitX=1;exitY=0.5;exitDx=0;exitDy=0;entryX=0;entryY=0.5;entryDx=0;entryDy=0;fontColor=#FF3333;" parent="1" source="ES-EeXoTM_ZExigbFJbH-70" target="ES-EeXoTM_ZExigbFJbH-72" edge="1">
          <mxGeometry relative="1" as="geometry" />
        </mxCell>
        <mxCell id="ES-EeXoTM_ZExigbFJbH-68" style="edgeStyle=orthogonalEdgeStyle;rounded=0;orthogonalLoop=1;jettySize=auto;html=1;exitX=1;exitY=0.5;exitDx=0;exitDy=0;entryX=0;entryY=0.5;entryDx=0;entryDy=0;fontColor=#0000FF;" parent="1" source="ES-EeXoTM_ZExigbFJbH-70" target="ES-EeXoTM_ZExigbFJbH-81" edge="1">
          <mxGeometry relative="1" as="geometry" />
        </mxCell>
        <mxCell id="ES-EeXoTM_ZExigbFJbH-69" style="edgeStyle=orthogonalEdgeStyle;rounded=0;orthogonalLoop=1;jettySize=auto;html=1;exitX=1;exitY=0.5;exitDx=0;exitDy=0;entryX=0;entryY=0.5;entryDx=0;entryDy=0;fontColor=#000000;" parent="1" source="ES-EeXoTM_ZExigbFJbH-70" target="ES-EeXoTM_ZExigbFJbH-82" edge="1">
          <mxGeometry relative="1" as="geometry" />
        </mxCell>
        <mxCell id="ES-EeXoTM_ZExigbFJbH-70" value="il reçoit la position après détection par un Husky" style="rounded=0;whiteSpace=wrap;html=1;" parent="1" vertex="1">
          <mxGeometry x="340" y="190" width="120" height="60" as="geometry" />
        </mxCell>
        <mxCell id="ES-EeXoTM_ZExigbFJbH-71" style="edgeStyle=orthogonalEdgeStyle;rounded=0;orthogonalLoop=1;jettySize=auto;html=1;exitX=1;exitY=0.5;exitDx=0;exitDy=0;entryX=0;entryY=0.5;entryDx=0;entryDy=0;fontColor=#000000;" parent="1" source="ES-EeXoTM_ZExigbFJbH-72" target="ES-EeXoTM_ZExigbFJbH-83" edge="1">
          <mxGeometry relative="1" as="geometry" />
        </mxCell>
        <mxCell id="ES-EeXoTM_ZExigbFJbH-72" value="F1_Husky" style="ellipse;whiteSpace=wrap;html=1;fillColor=#FF3333;" parent="1" vertex="1">
          <mxGeometry x="530" y="170" width="120" height="80" as="geometry" />
        </mxCell>
        <mxCell id="ES-EeXoTM_ZExigbFJbH-73" style="edgeStyle=orthogonalEdgeStyle;rounded=0;orthogonalLoop=1;jettySize=auto;html=1;exitX=1;exitY=0.5;exitDx=0;exitDy=0;entryX=0;entryY=0.5;entryDx=0;entryDy=0;fontColor=#3333FF;" parent="1" source="ES-EeXoTM_ZExigbFJbH-74" target="ES-EeXoTM_ZExigbFJbH-76" edge="1">
          <mxGeometry relative="1" as="geometry" />
        </mxCell>
        <mxCell id="ES-EeXoTM_ZExigbFJbH-74" value="&lt;font color=&quot;#000000&quot;&gt;demande à l&#39;utilisateur si c&#39;est un piège&lt;/font&gt;" style="rounded=0;whiteSpace=wrap;html=1;fontColor=#FF3333;fillColor=#FFFFFF;" parent="1" vertex="1">
          <mxGeometry x="530" y="80" width="140" height="40" as="geometry" />
        </mxCell>
        <mxCell id="ES-EeXoTM_ZExigbFJbH-120" style="edgeStyle=orthogonalEdgeStyle;rounded=0;orthogonalLoop=1;jettySize=auto;html=1;exitX=1;exitY=0.25;exitDx=0;exitDy=0;entryX=0;entryY=0.5;entryDx=0;entryDy=0;" parent="1" source="ES-EeXoTM_ZExigbFJbH-75" target="ES-EeXoTM_ZExigbFJbH-76" edge="1">
          <mxGeometry relative="1" as="geometry" />
        </mxCell>
        <mxCell id="ES-EeXoTM_ZExigbFJbH-75" value="validation de l&#39;utilisateur" style="rounded=0;whiteSpace=wrap;html=1;labelBackgroundColor=none;fontColor=#000000;fillColor=#FFFFFF;" parent="1" vertex="1">
          <mxGeometry x="530" y="130" width="140" height="20" as="geometry" />
        </mxCell>
        <mxCell id="ES-EeXoTM_ZExigbFJbH-76" value="&lt;font color=&quot;#3333ff&quot;&gt;cf. communication Drone/VAB&lt;/font&gt;" style="rounded=0;whiteSpace=wrap;html=1;labelBackgroundColor=none;fontColor=#000000;fillColor=#FFFFFF;" parent="1" vertex="1">
          <mxGeometry x="720" y="80" width="97" height="40" as="geometry" />
        </mxCell>
        <mxCell id="ES-EeXoTM_ZExigbFJbH-77" value="&lt;font color=&quot;#000000&quot;&gt;&lt;b&gt;caméra&lt;/b&gt;&lt;/font&gt;" style="rounded=0;whiteSpace=wrap;html=1;labelBackgroundColor=none;fontColor=#3333FF;fillColor=#FFFFFF;" parent="1" vertex="1">
          <mxGeometry x="530" y="-50" width="100" height="20" as="geometry" />
        </mxCell>
        <mxCell id="ES-EeXoTM_ZExigbFJbH-122" style="edgeStyle=orthogonalEdgeStyle;rounded=0;orthogonalLoop=1;jettySize=auto;html=1;exitX=1;exitY=0.5;exitDx=0;exitDy=0;entryX=0;entryY=0.5;entryDx=0;entryDy=0;" parent="1" source="ES-EeXoTM_ZExigbFJbH-79" target="ES-EeXoTM_ZExigbFJbH-121" edge="1">
          <mxGeometry relative="1" as="geometry" />
        </mxCell>
        <mxCell id="ES-EeXoTM_ZExigbFJbH-79" value="Envoie de l&#39;image au VAB" style="rounded=0;whiteSpace=wrap;html=1;labelBackgroundColor=none;fontColor=#000000;fillColor=#FFFFFF;" parent="1" vertex="1">
          <mxGeometry x="530" y="-20" width="140" height="40" as="geometry" />
        </mxCell>
        <mxCell id="ES-EeXoTM_ZExigbFJbH-81" value="&lt;font color=&quot;#0000ff&quot;&gt;communication drone/Husky ou passage par le VAB&lt;/font&gt;" style="rounded=0;whiteSpace=wrap;html=1;labelBackgroundColor=none;fontColor=#000000;fillColor=#FFFFFF;" parent="1" vertex="1">
          <mxGeometry x="530" y="260" width="120" height="60" as="geometry" />
        </mxCell>
        <mxCell id="ES-EeXoTM_ZExigbFJbH-82" value="&lt;font color=&quot;#000000&quot; style=&quot;background-color: rgb(51 , 153 , 255)&quot;&gt;déplacement du drone&lt;/font&gt;" style="rounded=0;whiteSpace=wrap;html=1;labelBackgroundColor=none;fontColor=#0000FF;fillColor=#FFFFFF;" parent="1" vertex="1">
          <mxGeometry x="530" y="340" width="120" height="60" as="geometry" />
        </mxCell>
        <mxCell id="ES-EeXoTM_ZExigbFJbH-83" value="système de coordonnées pour se repérer" style="rounded=0;whiteSpace=wrap;html=1;labelBackgroundColor=none;" parent="1" vertex="1">
          <mxGeometry x="720" y="185" width="110" height="50" as="geometry" />
        </mxCell>
        <mxCell id="ES-EeXoTM_ZExigbFJbH-93" value="algorithme de déplacement qui passe par le VAB (on ne peut faire tourner aucun algo sur le drone)&lt;br&gt;(il existe de tels algorithmes déjà codés)" style="rounded=0;whiteSpace=wrap;html=1;labelBackgroundColor=none;fontColor=#0000FF;strokeColor=#000000;fillColor=default;" parent="1" vertex="1">
          <mxGeometry x="530" y="410" width="190" height="80" as="geometry" />
        </mxCell>
        <mxCell id="ES-EeXoTM_ZExigbFJbH-114" style="edgeStyle=orthogonalEdgeStyle;rounded=0;orthogonalLoop=1;jettySize=auto;html=1;exitX=1;exitY=0.5;exitDx=0;exitDy=0;" parent="1" source="ES-EeXoTM_ZExigbFJbH-111" target="ES-EeXoTM_ZExigbFJbH-113" edge="1">
          <mxGeometry relative="1" as="geometry" />
        </mxCell>
        <mxCell id="ES-EeXoTM_ZExigbFJbH-111" value="F101: Autonomie ; il doit fonctionner durant toute l&#39;expérience" style="rounded=0;whiteSpace=wrap;html=1;" parent="1" vertex="1">
          <mxGeometry x="90" y="-270" width="120" height="60" as="geometry" />
        </mxCell>
        <mxCell id="ES-EeXoTM_ZExigbFJbH-116" value="" style="edgeStyle=orthogonalEdgeStyle;rounded=0;orthogonalLoop=1;jettySize=auto;html=1;" parent="1" source="ES-EeXoTM_ZExigbFJbH-113" target="ES-EeXoTM_ZExigbFJbH-115" edge="1">
          <mxGeometry relative="1" as="geometry" />
        </mxCell>
        <mxCell id="ES-EeXoTM_ZExigbFJbH-113" value="autonomie Anafi=25 minutes, donc le drone devra revenir au grand minimum 1 fois à la base pour changer de batterie" style="rounded=0;whiteSpace=wrap;html=1;" parent="1" vertex="1">
          <mxGeometry x="340" y="-285" width="120" height="90" as="geometry" />
        </mxCell>
        <mxCell id="ES-EeXoTM_ZExigbFJbH-115" value="Algorithme pour un retour automatique après 20 minutes de vol ou si la batterie est à moins de 20%&lt;br&gt;+ notification quand il arrive sur la base" style="rounded=0;whiteSpace=wrap;html=1;" parent="1" vertex="1">
          <mxGeometry x="520" y="-297.5" width="120" height="115" as="geometry" />
        </mxCell>
        <mxCell id="ES-EeXoTM_ZExigbFJbH-119" style="edgeStyle=orthogonalEdgeStyle;rounded=0;orthogonalLoop=1;jettySize=auto;html=1;exitX=1;exitY=0.5;exitDx=0;exitDy=0;entryX=0;entryY=0.5;entryDx=0;entryDy=0;" parent="1" source="ES-EeXoTM_ZExigbFJbH-117" target="ES-EeXoTM_ZExigbFJbH-76" edge="1">
          <mxGeometry relative="1" as="geometry" />
        </mxCell>
        <mxCell id="ES-EeXoTM_ZExigbFJbH-117" value="Envoie des images au VAB" style="rounded=0;whiteSpace=wrap;html=1;" parent="1" vertex="1">
          <mxGeometry x="530" y="40" width="140" height="30" as="geometry" />
        </mxCell>
        <mxCell id="ES-EeXoTM_ZExigbFJbH-121" value="&lt;font color=&quot;#3333ff&quot;&gt;cf. communication Drone/VAB avec notification sur l&#39;écran du VAB quand une photo est envoyé&lt;/font&gt;" style="rounded=0;whiteSpace=wrap;html=1;labelBackgroundColor=none;fontColor=#000000;fillColor=#FFFFFF;" parent="1" vertex="1">
          <mxGeometry x="720" y="-55" width="97" height="110" as="geometry" />
        </mxCell>
      </root>
    </mxGraphModel>
  </diagram>
</mxfile>
